[https @ 0x55ab83717680] Opening 'https://7dfcb88758ec.j.cloudfront.hls.ttvnw.net/v1/segment/CuwCedJL7Fl47oGN5IFxQ_4119F9lDMIzyCj0K9j6vyi2uPLwFDCQzxZ4ZiQ21DVtScNCtSR6MXamniXYD1307COsZqSmfwNJ1OqOgjjkBfpdz_zCGJDA3szkoGYd-VvkxZySsT8CQBvs6nS8yKNye9mWwK0ifD__7zDOLhHNeIMMHucz7WxxocDjsxHgsfs6qDQjlM8T_kdldTi86on1uNo5-NtHM6OPjZdcE3NXGb-1lkk7sbU2yI-NgXWyGNCVzChHnvdRzumD2OEG4tDf3niRQkEhvvhHyRxm_PCpoSnHRXoo6wytRVTVDsTf1a_AL_kOX8puJvM8h_cyPracl_PAT-vJPvMf_FGC5i5vI9J_J1D7oFrdPFZOHPg6TTQ0HB5M98Ypp_Gmr4Tp1OkuIWPkfZlQKul0W5607zyQDnhdd0kNNqdw_BvK07kNljrsY5h4haSwHU6BBVh746r_qImC8YnMJdCNTyIYKWDSxoM2ePyXO2OjsxDJyu4IAEqCWV1LXdlc3QtMjDwDQ.ts?dna=Cm0YFa7NxijvdIqXPt8Kf4clYhrZEZ_YYeTqV-NKOXyipnnRPuLEoVZmH5-TiR8d90BCfPfnZBsqJ4IbtsTtniaVRUhGitu47ocI_M0QQv75vtpPDCyy1G-0CsXFCsTGrAwxINNo4uKt-byuXYW7GgyD3q6gaOQnxElBQxMgASoJZXUtd2VzdC0yMPAN' for reading
frame= 1198 fps= 83 q=-1.0 size=    8960KiB time=00:00:19.93 bitrate=3682.4kbits/s speed=1.37x    
frame= 1198 fps= 80 q=-1.0 size=    8960KiB time=00:00:19.93 bitrate=3682.4kbits/s speed=1.33x    
frame= 1198 fps= 77 q=-1.0 size=    8960KiB time=00:00:19.93 bitrate=3682.4kbits/s speed=1.29x    
frame= 1198 fps= 75 q=-1.0 size=    8960KiB time=00:00:19.93 bitrate=3682.4kbits/s speed=1.25x    
[https @ 0x7f1ec4002dc0] Opening 'https://euw11.playlist.ttvnw.net/v1/playlist/CqkGTbQJBC-NrGmywxsbBh1hsuYNtkaud1XPb_Y1wnKYsdxayA-6Phcv_VYQYaXKyu0zjeGUbFGIvRlhJCQVyXFlzQue6xmwkwdhtiJipEH15yR6MZTSLREkCsyR7ghMY-65PsteVRoDkcloaYvKlTdOU7oSO3Pn1HeU4UMY0kcW08hEGTiXnU1b8ijgqSruH6f_RWPwgQisNhhF6ekSqmHK9zlguJyg8-Yb96Fa8Zh3KOgfWGJauVy04YNkGS5Kkfz8mDUiryz6V3GzRZHg9Db9TDKElWwTsSfsMN6MXsbAVVmYZS7X9IhA_KYMcEb2HeMOKfMj5UfPQecjcpmRiU3chLws_whu9ZPtvchWxcThL2p8uaIWUjtdE1OcAwLNrt2XpygyiFHHfyR1j2ZPMaBMud8TtW9lZZV8wyyfZcUxBGSAVUqqvh2q07GgMUQo7LK1x8xisXb4B2ehJLN2NiLklJO1VZ3FcerS9m02wqeY6NeZUt2MG49Towx1Rhg0EDv1k787zA6QZf3-z6Gyv-TORUJ-j125DaXOQG4ss1MRyl-Y5rYkMkhc61E9Ka1pyiR0IZ8KBrejtXQIiXep_nDYPCnQ3OzyVfWz0-rDpSfSvxsykrt6XjSJr7fRXQomuTUnho7avW27-2eDR2pg8CZ8SaRx_0A2H_BvGGg-hkhyo3c5I2gbnuNIn_YSIj7e3MsyrwUVAoXScH5ZojfcijE_tJ4e0lJ9wI0vg6IyigbrOSjQljlubWXSLec5uWjoeP7XSi93uEZP578_p632FgTgnXuxJz1EUovBepGCqps7W0XKk2KKYIT8j5VI58e0b3zRMMN_joHAyN2Bfr2J3bPxYcQqxfxL-ITDjEmWNrRmoYMYydVbb6b46XXxPOeMnXQqIOiZBH1f6DK4js_aFHaQvUGxA2U-ZUmT2tqtpyNQI0yhvdIHcd5C1FkVLaYBvT_q-jN3xmi_6SZVZ38hMdN5CxBolJBYEDGuPJclHTDYQQW8Nt5owKpC2t79cH51K3vDkj5bsr5fH6OfQ2HPk01dg9aHPCvM0hiAG-040sHHvxWkmY6U5gc0gS8aDNdO1J3d6CRd6OdLyyABKglldS13ZXN0LTIw8A0.m3u8' for reading
[hls @ 0x55ab8344c200] Skip ('#EXT-X-VERSION:3')
[hls @ 0x55ab8344c200] Skip ('#EXT-X-TWITCH-LIVE-SEQUENCE:13604')
[hls @ 0x55ab8344c200] Skip ('#EXT-X-TWITCH-ELAPSED-SECS:27208.000')
[hls @ 0x55ab8344c200] Skip ('#EXT-X-TWITCH-TOTAL-SECS:27240.000')
[hls @ 0x55ab8344c200] Skip ('#EXT-X-DATERANGE:ID="playlist-creation-1764946862",CLASS="timestamp",START-DATE="2025-12-05T15:01:02.780Z",END-ON-NEXT=YES,X-SERVER-TIME="1764946862.78"')
[hls @ 0x55ab8344c200] Skip ('#EXT-X-DATERANGE:ID="playlist-session-1764946862",CLASS="twitch-session",START-DATE="2025-12-05T15:01:02.780Z",END-ON-NEXT=YES,X-TV-TWITCH-SESSIONID="5957153348274296444"')
[hls @ 0x55ab8344c200] Skip ('#EXT-X-DATERANGE:ID="source-1764946833",CLASS="twitch-stream-source",START-DATE="2025-12-05T15:00:33.649Z",END-ON-NEXT=YES,X-TV-TWITCH-STREAM-SOURCE="live"')
[hls @ 0x55ab8344c200] Skip ('#EXT-X-DATERANGE:ID="trigger-1764946833",CLASS="twitch-trigger",START-DATE="2025-12-05T15:00:33.649Z",END-ON-NEXT=YES,X-TV-TWITCH-TRIGGER-URL="https://euw11.playlist.ttvnw.net/trigger/CpcGcKH3Ik8Cv4GLI2sQIrOTP24N8Ut6E_v2_EXk9hIInbGednm0VTRTsfdJi0sBfDnSuQIpuhy--T61cySurnpDNir-mRjsbOw1_sBH2xHPDelmTCaOowmfGB0shrYJfVuiNtHURrh40rgR2ChuYa2q81oKt1A_Pixa-XRXOtSmf7ARwB-gIniDL7OrKwXOVmMKmsWonLxodPyJrzWZ6Fvwgl5-AUTP5M8_qO-lRfk684b-QEWZWGHBbNO-cbhQTChT3Jp4vMTnYoamGh_8CoCYSz_txeEbgJIWCNrw2eVboRda1fAkNm-4yr7ph-Av9nQedjNx50KRrwEvxR_rn8epeNiasc1CL0UdM8iu_0EvHm5zldmnw6NqSQ_QCO4XiMxkwyK0XyL489VajDLH4IkWDBTqQIDsU7ykstIfkpycpjQuOvk7gvLZSOJCaWI9X8j750C5XeY7AjnDQsqweiPA1al6WopbfHPn2a105k9eUpqBUb4Y6kHAV_mxb5Fi39WSuMBfpNZt0oElaOh8D_Ey0nuSW0v57ux1i_bL9wH2fkhBogtaEG1nRbK0FK4RS3IL1S_-1KmVla0AD_ekkAK_lq2XyCvXFNyqGTuaH-Guf_5Rbi3D6SJHCCYbDJtIbwmLmEf0J4kefOahdYDfU91ux-XsbrDbtHM52dbBH7jOxm81W57hCIWQhcars5yo4108VENIdNhko2XaA1ghbyp9z7Qhsdz5ovIPgdUmSrqdwtg0zPb0kY2GOkUJjBG31Dx2NOU-MviaGglKWFZT2xxHDmKV4s53J3CroM62X1uDa_YisNos4NLW-Pe1j-fKf1kcUTbGjDOzdPzQ9SywstXecF2Ys2ANf2BsFYlfg0rEXQNwHRtAd6P0VIE4FcsE4iG15kViWqdThXQgo8ecFeGq9Fh7vMwDmYcLriliyJ7KK1kOJBiKGxSTK2hJInS1CQ_dyz2fGN3LNX4XKDDhMl9f90GQmEkRjJE2wtlGKdkn2qkjzThtmGh_LCxN8hDffhu4TeaBNo8oH-E9CsaGqlvK_syTfhiFZtwaDN6qFqoHqsuWOX8OpiABKglldS13ZXN0LTIw8A0"')
[hls @ 0x55ab8344c200] Skip ('#EXT-X-PROGRAM-DATE-TIME:2025-12-05T15:00:59.649Z')
[hls @ 0x55ab8344c200] Skip ('#EXT-X-PROGRAM-DATE-TIME:2025-12-05T15:01:01.649Z')
[hls @ 0x55ab8344c200] Skip ('#EXT-X-PROGRAM-DATE-TIME:2025-12-05T15:01:03.649Z')
[hls @ 0x55ab8344c200] Skip ('#EXT-X-PROGRAM-DATE-TIME:2025-12-05T15:01:05.649Z')
[hls @ 0x55ab8344c200] Skip ('#EXT-X-PROGRAM-DATE-TIME:2025-12-05T15:01:07.649Z')
[hls @ 0x55ab8344c200] Skip ('#EXT-X-PROGRAM-DATE-TIME:2025-12-05T15:01:09.649Z')
[hls @ 0x55ab8344c200] Skip ('#EXT-X-PROGRAM-DATE-TIME:2025-12-05T15:01:11.649Z')
[hls @ 0x55ab8344c200] Skip ('#EXT-X-PROGRAM-DATE-TIME:2025-12-05T15:01:13.649Z')
[hls @ 0x55ab8344c200] Skip ('#EXT-X-PROGRAM-DATE-TIME:2025-12-05T15:01:15.649Z')
[hls @ 0x55ab8344c200] Skip ('#EXT-X-PROGRAM-DATE-TIME:2025-12-05T15:01:17.649Z')
[hls @ 0x55ab8344c200] Skip ('#EXT-X-PROGRAM-DATE-TIME:2025-12-05T15:01:19.649Z')
[hls @ 0x55ab8344c200] Skip ('#EXT-X-PROGRAM-DATE-TIME:2025-12-05T15:01:21.649Z')
[hls @ 0x55ab8344c200] Skip ('#EXT-X-PROGRAM-DATE-TIME:2025-12-05T15:01:23.649Z')
[hls @ 0x55ab8344c200] Skip ('#EXT-X-PROGRAM-DATE-TIME:2025-12-05T15:01:25.649Z')
[hls @ 0x55ab8344c200] Skip ('#EXT-X-TWITCH-PREFETCH:https://7dfcb88758ec.j.cloudfront.hls.ttvnw.net/v1/segment/CuwCyTJzpqpJqBHpLcRmHutas0RTJhXSb5IGb-_DTyUraA460W2Rg8zVKNgjiKo7sQDUxTeikC67JwOOTOnnwsd5Fja9KTmZE3k4jV_zIsEUre244ja_c_VdjnzN5DwqZwC07H763l9UojlNtbTlAxXiaawy8KXlHFxq2-3Ul7ymH8OJT4LDEWFJ8hOHW9hsXMjLyfGa0M4bBA_jRDTfMCNZaZK6sx9DaXYsRzmb5TtveXXd1jz18BWI0O15O5fk2HibfWxJIKE2fhweayaPgMy8hIYUTDs_TXF7tMXzyE0t_vRzx9NOzsvL55enunncfiFcLHiWzS5mVEhZbHlbYV_JQwS4XAIY46ktJCWbE93p60zmpBPDJfm8QlF2toEyuBaxvmvqNJh1tUs0c4g5l6E9F2VQQIpwfJuid3i-8QUGlf8dEf8zJAIgqdod6f-NMQmBy-9uPTGz7Eyvy9TXs84P-S64paq8Pwax-l1hnxoMMqmPt3vUhIRhm-M5IAEqCWV1LXdlc3QtMjDwDQ.ts?dna=Cm0YFa7NxijvdIqXPt8Kf4clYhrZEZ_YYeTqV-NKOXyipnnRPuLEoVZmH5-TiR8d90BCfPfnZBsqJ4IbtsTtniaVRUhGitu47ocI_M0QQv75vtpPDCyy1G-0CsXFCsTGrAwxINNo4uKt-byuXYW7GgyD3q6gaOQnxElBQxMgASoJZXUtd2VzdC0yMPAN')
[hls @ 0x55ab8344c200] Skip ('#EXT-X-TWITCH-PREFETCH:https://7dfcb88758ec.j.cloudfront.hls.ttvnw.net/v1/segment/CuwCz6JRwjErM3fAfzK5q2VoeqvcM6SdfJXsNetF0Lkg3gae7mxv47ad21XD0Ts6oNmIjZpc_bgN4Zs1qrCM_Pzwbn3q7NquFItrF4XNZ6Sdxg1NDIhcxXkATTdAJKemuY7xkXw1fAqQHkzs--LOS01qPtpPiKEOVSgIVmgU4jE5tEctRNJRtObdkcI8k4_DSHF1kIRKACLplprpObnq2Eu6wEkQ_eHRXK3KX61XhVsNwF6XoZshVW8SGPxKj37-RixWKChrM0ueJAIVBc8jrXf_vDkirG0yS356pSt2pcSn4_nELDH0n5MWWz4z9HcBmUUh1R-7YofINNdfy2vtyt18gw47aLNZHZSll9FoSGEPKQ1OYhdgEWRe_tcNAA7bIpoAfIQ6eWSmYUZhFBIjov0pczDWianlllcPRoEH_2rUmm8u56I0nKjGrhOMf99f3N15JthDjlE0vBS0-cEVtYJPnuFZrBWYgjs-0hYDhBoML4AUxz5G8n_BGDW7IAEqCWV1LXdlc3QtMjDwDQ.ts?dna=Cm0YFa7NxijvdIqXPt8Kf4clYhrZEZ_YYeTqV-NKOXyipnnRPuLEoVZmH5-TiR8d90BCfPfnZBsqJ4IbtsTtniaVRUhGitu47ocI_M0QQv75vtpPDCyy1G-0CsXFCsTGrAwxINNo4uKt-byuXYW7GgyD3q6gaOQnxElBQxMgASoJZXUtd2VzdC0yMPAN')
[https @ 0x55ab83717680] Opening 'https://7dfcb88758ec.j.cloudfront.hls.ttvnw.net/v1/segment/CuwC8jWCzItXXzcV4Sg3s9sBfyNU8qu6KUQslCVBOzmV6xSI-Of39e7e667kw4dwNQ8BnTyvnYFXaFAPpT5fHdECcV7maMAWrbcwvenrNGouK1ExByqap_jp03liEBp-xIbo6vZhotF3atZY47HqZbCvb57ZgqudcxQjY4o6Vo6MHRlLukeR5ZmuZaRuFmTnUhbcVrtI42EyAwIOb8cpgXqdD0phLdWbtmyvE03mT5ueRnyMhrc2bUPGbWK6HCW-Dy7oKOM35efgxyS4Aym5Kepeuo19KIRXGjS0K71dkJ0xaeUMc3CgX2TS8z1DRArlJuQFh4zQIV97wIGeOHG2-74KaPgQVqacJGWpy5JZtXvWHcHRqGZt_6qEkMbaBFL4mrY-1wXdWdkwujkeamDHD07d411O3th31TbtgBOxhxpeepMNfwb1EGaML6AOqz4V94Fv_eD3ZAkQEQ2IgA3x6S2KutC869w5EmNBL1SowBoM-TGWwqtl7MkUivaeIAEqCWV1LXdlc3QtMjDwDQ.ts?dna=Cm0YFa7NxijvdIqXPt8Kf4clYhrZEZ_YYeTqV-NKOXyipnnRPuLEoVZmH5-TiR8d90BCfPfnZBsqJ4IbtsTtniaVRUhGitu47ocI_M0QQv75vtpPDCyy1G-0CsXFCsTGrAwxINNo4uKt-byuXYW7GgyD3q6gaOQnxElBQxMgASoJZXUtd2VzdC0yMPAN' for reading
frame= 1318 fps= 80 q=-1.0 size=    9728KiB time=00:00:21.93 bitrate=3633.5kbits/s speed=1.33x    
frame= 1318 fps= 77 q=-1.0 size=    9728KiB time=00:00:21.93 bitrate=3633.5kbits/s speed=1.29x    
frame= 1318 fps= 75 q=-1.0 size=    9728KiB time=00:00:21.93 bitrate=3633.5kbits/s speed=1.25x    
frame= 1318 fps= 73 q=-1.0 size=    9728KiB time=00:00:21.93 bitrate=3633.5kbits/s speed=1.22x    
[https @ 0x7f1ec4002dc0] Opening 'https://euw11.playlist.ttvnw.net/v1/playlist/CqkGTbQJBC-NrGmywxsbBh1hsuYNtkaud1XPb_Y1wnKYsdxayA-6Phcv_VYQYaXKyu0zjeGUbFGIvRlhJCQVyXFlzQue6xmwkwdhtiJipEH15yR6MZTSLREkCsyR7ghMY-65PsteVRoDkcloaYvKlTdOU7oSO3Pn1HeU4UMY0kcW08hEGTiXnU1b8ijgqSruH6f_RWPwgQisNhhF6ekSqmHK9zlguJyg8-Yb96Fa8Zh3KOgfWGJauVy04YNkGS5Kkfz8mDUiryz6V3GzRZHg9Db9TDKElWwTsSfsMN6MXsbAVVmYZS7X9IhA_KYMcEb2HeMOKfMj5UfPQecjcpmRiU3chLws_whu9ZPtvchWxcThL2p8uaIWUjtdE1OcAwLNrt2XpygyiFHHfyR1j2ZPMaBMud8TtW9lZZV8wyyfZcUxBGSAVUqqvh2q07GgMUQo7LK1x8xisXb4B2ehJLN2NiLklJO1VZ3FcerS9m02wqeY6NeZUt2MG49Towx1Rhg0EDv1k787zA6QZf3-z6Gyv-TORUJ-j125DaXOQG4ss1MRyl-Y5rYkMkhc61E9Ka1pyiR0IZ8KBrejtXQIiXep_nDYPCnQ3OzyVfWz0-rDpSfSvxsykrt6XjSJr7fRXQomuTUnho7avW27-2eDR2pg8CZ8SaRx_0A2H_BvGGg-hkhyo3c5I2gbnuNIn_YSIj7e3MsyrwUVAoXScH5ZojfcijE_tJ4e0lJ9wI0vg6IyigbrOSjQljlubWXSLec5uWjoeP7XSi93uEZP578_p632FgTgnXuxJz1EUovBepGCqps7W0XKk2KKYIT8j5VI58e0b3zRMMN_joHAyN2Bfr2J3bPxYcQqxfxL-ITDjEmWNrRmoYMYydVbb6b46XXxPOeMnXQqIOiZBH1f6DK4js_aFHaQvUGxA2U-ZUmT2tqtpyNQI0yhvdIHcd5C1FkVLaYBvT_q-jN3xmi_6SZVZ38hMdN5CxBolJBYEDGuPJclHTDYQQW8Nt5owKpC2t79cH51K3vDkj5bsr5fH6OfQ2HPk01dg9aHPCvM0hiAG-040sHHvxWkmY6U5gc0gS8aDNdO1J3d6CRd6OdLyyABKglldS13ZXN0LTIw8A0.m3u8' for reading
[hls @ 0x55ab8344c200] Skip ('#EXT-X-VERSION:3')
[hls @ 0x55ab8344c200] Skip ('#EXT-X-TWITCH-LIVE-SEQUENCE:13605')
[hls @ 0x55ab8344c200] Skip ('#EXT-X-TWITCH-ELAPSED-SECS:27210.000')
[hls @ 0x55ab8344c200] Skip ('#EXT-X-TWITCH-TOTAL-SECS:27242.000')
[hls @ 0x55ab8344c200] Skip ('#EXT-X-DATERANGE:ID="playlist-creation-1764946862",CLASS="timestamp",START-DATE="2025-12-05T15:01:02.780Z",END-ON-NEXT=YES,X-SERVER-TIME="1764946862.78"')
[hls @ 0x55ab8344c200] Skip ('#EXT-X-DATERANGE:ID="playlist-session-1764946862",CLASS="twitch-session",START-DATE="2025-12-05T15:01:02.780Z",END-ON-NEXT=YES,X-TV-TWITCH-SESSIONID="5957153348274296444"')
[hls @ 0x55ab8344c200] Skip ('#EXT-X-DATERANGE:ID="source-1764946833",CLASS="twitch-stream-source",START-DATE="2025-12-05T15:00:33.649Z",END-ON-NEXT=YES,X-TV-TWITCH-STREAM-SOURCE="live"')
[hls @ 0x55ab8344c200] Skip ('#EXT-X-DATERANGE:ID="trigger-1764946833",CLASS="twitch-trigger",START-DATE="2025-12-05T15:00:33.649Z",END-ON-NEXT=YES,X-TV-TWITCH-TRIGGER-URL="https://euw11.playlist.ttvnw.net/trigger/CpcGcKH3Ik8Cv4GLI2sQIrOTP24N8Ut6E_v2_EXk9hIInbGednm0VTRTsfdJi0sBfDnSuQIpuhy--T61cySurnpDNir-mRjsbOw1_sBH2xHPDelmTCaOowmfGB0shrYJfVuiNtHURrh40rgR2ChuYa2q81oKt1A_Pixa-XRXOtSmf7ARwB-gIniDL7OrKwXOVmMKmsWonLxodPyJrzWZ6Fvwgl5-AUTP5M8_qO-lRfk684b-QEWZWGHBbNO-cbhQTChT3Jp4vMTnYoamGh_8CoCYSz_txeEbgJIWCNrw2eVboRda1fAkNm-4yr7ph-Av9nQedjNx50KRrwEvxR_rn8epeNiasc1CL0UdM8iu_0EvHm5zldmnw6NqSQ_QCO4XiMxkwyK0XyL489VajDLH4IkWDBTqQIDsU7ykstIfkpycpjQuOvk7gvLZSOJCaWI9X8j750C5XeY7AjnDQsqweiPA1al6WopbfHPn2a105k9eUpqBUb4Y6kHAV_mxb5Fi39WSuMBfpNZt0oElaOh8D_Ey0nuSW0v57ux1i_bL9wH2fkhBogtaEG1nRbK0FK4RS3IL1S_-1KmVla0AD_ekkAK_lq2XyCvXFNyqGTuaH-Guf_5Rbi3D6SJHCCYbDJtIbwmLmEf0J4kefOahdYDfU91ux-XsbrDbtHM52dbBH7jOxm81W57hCIWQhcars5yo4108VENIdNhko2XaA1ghbyp9z7Qhsdz5ovIPgdUmSrqdwtg0zPb0kY2GOkUJjBG31Dx2NOU-MviaGglKWFZT2xxHDmKV4s53J3CroM62X1uDa_YisNos4NLW-Pe1j-fKf1kcUTbGjDOzdPzQ9SywstXecF2Ys2ANf2BsFYlfg0rEXQNwHRtAd6P0VIE4FcsE4iG15kViWqdThXQgo8ecFeGq9Fh7vMwDmYcLriliyJ7KK1kOJBiKGxSTK2hJInS1CQ_dyz2fGN3LNX4XKDDhMl9f90GQmEkRjJE2wtlGKdkn2qkjzThtmGh_LCxN8hDffhu4TeaBNo8oH-E9CsaGqlvK_syTfhiFZtwaDN6qFqoHqsuWOX8OpiABKglldS13ZXN0LTIw8A0"')
[hls @ 0x55ab8344c200] Skip ('#EXT-X-PROGRAM-DATE-TIME:2025-12-05T15:01:01.649Z')
[hls @ 0x55ab8344c200] Skip ('#EXT-X-PROGRAM-DATE-TIME:2025-12-05T15:01:03.649Z')
[hls @ 0x55ab8344c200] Skip ('#EXT-X-PROGRAM-DATE-TIME:2025-12-05T15:01:05.649Z')
[hls @ 0x55ab8344c200] Skip ('#EXT-X-PROGRAM-DATE-TIME:2025-12-05T15:01:07.649Z')
[hls @ 0x55ab8344c200] Skip ('#EXT-X-PROGRAM-DATE-TIME:2025-12-05T15:01:09.649Z')
[hls @ 0x55ab8344c200] Skip ('#EXT-X-PROGRAM-DATE-TIME:2025-12-05T15:01:11.649Z')
[hls @ 0x55ab8344c200] Skip ('#EXT-X-PROGRAM-DATE-TIME:2025-12-05T15:01:13.649Z')
[hls @ 0x55ab8344c200] Skip ('#EXT-X-PROGRAM-DATE-TIME:2025-12-05T15:01:15.649Z')
[hls @ 0x55ab8344c200] Skip ('#EXT-X-PROGRAM-DATE-TIME:2025-12-05T15:01:17.649Z')
[hls @ 0x55ab8344c200] Skip ('#EXT-X-PROGRAM-DATE-TIME:2025-12-05T15:01:19.649Z')
[hls @ 0x55ab8344c200] Skip ('#EXT-X-PROGRAM-DATE-TIME:2025-12-05T15:01:21.649Z')
[hls @ 0x55ab8344c200] Skip ('#EXT-X-PROGRAM-DATE-TIME:2025-12-05T15:01:23.649Z')
[hls @ 0x55ab8344c200] Skip ('#EXT-X-PROGRAM-DATE-TIME:2025-12-05T15:01:25.649Z')
[hls @ 0x55ab8344c200] Skip ('#EXT-X-PROGRAM-DATE-TIME:2025-12-05T15:01:27.649Z')
[hls @ 0x55ab8344c200] Skip ('#EXT-X-TWITCH-PREFETCH:https://7dfcb88758ec.j.cloudfront.hls.ttvnw.net/v1/segment/CuwCz6JRwjErM3fAfzK5q2VoeqvcM6SdfJXsNetF0Lkg3gae7mxv47ad21XD0Ts6oNmIjZpc_bgN4Zs1qrCM_Pzwbn3q7NquFItrF4XNZ6Sdxg1NDIhcxXkATTdAJKemuY7xkXw1fAqQHkzs--LOS01qPtpPiKEOVSgIVmgU4jE5tEctRNJRtObdkcI8k4_DSHF1kIRKACLplprpObnq2Eu6wEkQ_eHRXK3KX61XhVsNwF6XoZshVW8SGPxKj37-RixWKChrM0ueJAIVBc8jrXf_vDkirG0yS356pSt2pcSn4_nELDH0n5MWWz4z9HcBmUUh1R-7YofINNdfy2vtyt18gw47aLNZHZSll9FoSGEPKQ1OYhdgEWRe_tcNAA7bIpoAfIQ6eWSmYUZhFBIjov0pczDWianlllcPRoEH_2rUmm8u56I0nKjGrhOMf99f3N15JthDjlE0vBS0-cEVtYJPnuFZrBWYgjs-0hYDhBoML4AUxz5G8n_BGDW7IAEqCWV1LXdlc3QtMjDwDQ.ts?dna=Cm0YFa7NxijvdIqXPt8Kf4clYhrZEZ_YYeTqV-NKOXyipnnRPuLEoVZmH5-TiR8d90BCfPfnZBsqJ4IbtsTtniaVRUhGitu47ocI_M0QQv75vtpPDCyy1G-0CsXFCsTGrAwxINNo4uKt-byuXYW7GgyD3q6gaOQnxElBQxMgASoJZXUtd2VzdC0yMPAN')
[hls @ 0x55ab8344c200] Skip ('#EXT-X-TWITCH-PREFETCH:https://7dfcb88758ec.j.cloudfront.hls.ttvnw.net/v1/segment/CuwCYA9gOOxSyHawe3Hcni15VHtSk49V5oxZvlYN859Szr2uFN5Mo-ZHhXuhZ3ruDnGHoHrE9XHt2ILlhoBt-bMCFn0RE7NZoRxIL0cBU99bNAnH7557mtDyK1XR7npZk5TVRFxUHwJ1f9xFfSyVahJfuPwSAp-3zm3U4kD7JOPyWqLT46Fdw6dgsO3eUuqv3nTSiDWu2mOCaOodbr4A_SpSij72cEnCahBgbzi2PG_rsjXgh18FVoL2kaKbqhY4LeuvjmJefhIcnYgTzlkZP6aHHUIGwotJXTPpCzLWT6v04WG7uwNhOmm74gV0bvt-1MbwhOwzbDMm-YLB-7nzCbmu6P7oJBGrfppvCsrGhQjZaZJ1ODlBS7kQdp2KqFfg18E7wAumirgkzvIj4mBtawgYqym85KiBbGTnosTiSXacbl8Sg3TfDLB-XYmVoNoXj1zu69haPRi-5PE4Y3cOiEjwIpnKrcqv83Lq2MRV9BoMj0PvUn826Jg8zuNYIAEqCWV1LXdlc3QtMjDwDQ.ts?dna=Cm0YFa7NxijvdIqXPt8Kf4clYhrZEZ_YYeTqV-NKOXyipnnRPuLEoVZmH5-TiR8d90BCfPfnZBsqJ4IbtsTtniaVRUhGitu47ocI_M0QQv75vtpPDCyy1G-0CsXFCsTGrAwxINNo4uKt-byuXYW7GgyD3q6gaOQnxElBQxMgASoJZXUtd2VzdC0yMPAN')
[https @ 0x55ab83717680] Opening 'https://7dfcb88758ec.j.cloudfront.hls.ttvnw.net/v1/segment/CuwCyTJzpqpJqBHpLcRmHutas0RTJhXSb5IGb-_DTyUraA460W2Rg8zVKNgjiKo7sQDUxTeikC67JwOOTOnnwsd5Fja9KTmZE3k4jV_zIsEUre244ja_c_VdjnzN5DwqZwC07H763l9UojlNtbTlAxXiaawy8KXlHFxq2-3Ul7ymH8OJT4LDEWFJ8hOHW9hsXMjLyfGa0M4bBA_jRDTfMCNZaZK6sx9DaXYsRzmb5TtveXXd1jz18BWI0O15O5fk2HibfWxJIKE2fhweayaPgMy8hIYUTDs_TXF7tMXzyE0t_vRzx9NOzsvL55enunncfiFcLHiWzS5mVEhZbHlbYV_JQwS4XAIY46ktJCWbE93p60zmpBPDJfm8QlF2toEyuBaxvmvqNJh1tUs0c4g5l6E9F2VQQIpwfJuid3i-8QUGlf8dEf8zJAIgqdod6f-NMQmBy-9uPTGz7Eyvy9TXs84P-S64paq8Pwax-l1hnxoMMqmPt3vUhIRhm-M5IAEqCWV1LXdlc3QtMjDwDQ.ts?dna=Cm0YFa7NxijvdIqXPt8Kf4clYhrZEZ_YYeTqV-NKOXyipnnRPuLEoVZmH5-TiR8d90BCfPfnZBsqJ4IbtsTtniaVRUhGitu47ocI_M0QQv75vtpPDCyy1G-0CsXFCsTGrAwxINNo4uKt-byuXYW7GgyD3q6gaOQnxElBQxMgASoJZXUtd2VzdC0yMPAN' for reading
frame= 1356 fps= 73 q=-1.0 size=    9984KiB time=00:00:22.56 bitrate=3624.3kbits/s speed=1.22x    
[https @ 0x7f1ec4002dc0] Opening 'https://euw11.playlist.ttvnw.net/v1/playlist/CqkGTbQJBC-NrGmywxsbBh1hsuYNtkaud1XPb_Y1wnKYsdxayA-6Phcv_VYQYaXKyu0zjeGUbFGIvRlhJCQVyXFlzQue6xmwkwdhtiJipEH15yR6MZTSLREkCsyR7ghMY-65PsteVRoDkcloaYvKlTdOU7oSO3Pn1HeU4UMY0kcW08hEGTiXnU1b8ijgqSruH6f_RWPwgQisNhhF6ekSqmHK9zlguJyg8-Yb96Fa8Zh3KOgfWGJauVy04YNkGS5Kkfz8mDUiryz6V3GzRZHg9Db9TDKElWwTsSfsMN6MXsbAVVmYZS7X9IhA_KYMcEb2HeMOKfMj5UfPQecjcpmRiU3chLws_whu9ZPtvchWxcThL2p8uaIWUjtdE1OcAwLNrt2XpygyiFHHfyR1j2ZPMaBMud8TtW9lZZV8wyyfZcUxBGSAVUqqvh2q07GgMUQo7LK1x8xisXb4B2ehJLN2NiLklJO1VZ3FcerS9m02wqeY6NeZUt2MG49Towx1Rhg0EDv1k787zA6QZf3-z6Gyv-TORUJ-j125DaXOQG4ss1MRyl-Y5rYkMkhc61E9Ka1pyiR0IZ8KBrejtXQIiXep_nDYPCnQ3OzyVfWz0-rDpSfSvxsykrt6XjSJr7fRXQomuTUnho7avW27-2eDR2pg8CZ8SaRx_0A2H_BvGGg-hkhyo3c5I2gbnuNIn_YSIj7e3MsyrwUVAoXScH5ZojfcijE_tJ4e0lJ9wI0vg6IyigbrOSjQljlubWXSLec5uWjoeP7XSi93uEZP578_p632FgTgnXuxJz1EUovBepGCqps7W0XKk2KKYIT8j5VI58e0b3zRMMN_joHAyN2Bfr2J3bPxYcQqxfxL-ITDjEmWNrRmoYMYydVbb6b46XXxPOeMnXQqIOiZBH1f6DK4js_aFHaQvUGxA2U-ZUmT2tqtpyNQI0yhvdIHcd5C1FkVLaYBvT_q-jN3xmi_6SZVZ38hMdN5CxBolJBYEDGuPJclHTDYQQW8Nt5owKpC2t79cH51K3vDkj5bsr5fH6OfQ2HPk01dg9aHPCvM0hiAG-040sHHvxWkmY6U5gc0gS8aDNdO1J3d6CRd6OdLyyABKglldS13ZXN0LTIw8A0.m3u8' for reading
[hls @ 0x55ab8344c200] Skip ('#EXT-X-VERSION:3')
[hls @ 0x55ab8344c200] Skip ('#EXT-X-TWITCH-LIVE-SEQUENCE:13606')
[hls @ 0x55ab8344c200] Skip ('#EXT-X-TWITCH-ELAPSED-SECS:27212.000')
[hls @ 0x55ab8344c200] Skip ('#EXT-X-TWITCH-TOTAL-SECS:27244.000')
[hls @ 0x55ab8344c200] Skip ('#EXT-X-DATERANGE:ID="playlist-creation-1764946862",CLASS="timestamp",START-DATE="2025-12-05T15:01:02.780Z",END-ON-NEXT=YES,X-SERVER-TIME="1764946862.78"')
[hls @ 0x55ab8344c200] Skip ('#EXT-X-DATERANGE:ID="playlist-session-1764946862",CLASS="twitch-session",START-DATE="2025-12-05T15:01:02.780Z",END-ON-NEXT=YES,X-TV-TWITCH-SESSIONID="5957153348274296444"')
[hls @ 0x55ab8344c200] Skip ('#EXT-X-DATERANGE:ID="source-1764946833",CLASS="twitch-stream-source",START-DATE="2025-12-05T15:00:33.649Z",END-ON-NEXT=YES,X-TV-TWITCH-STREAM-SOURCE="live"')
[hls @ 0x55ab8344c200] Skip ('#EXT-X-DATERANGE:ID="trigger-1764946833",CLASS="twitch-trigger",START-DATE="2025-12-05T15:00:33.649Z",END-ON-NEXT=YES,X-TV-TWITCH-TRIGGER-URL="https://euw11.playlist.ttvnw.net/trigger/CpcGcKH3Ik8Cv4GLI2sQIrOTP24N8Ut6E_v2_EXk9hIInbGednm0VTRTsfdJi0sBfDnSuQIpuhy--T61cySurnpDNir-mRjsbOw1_sBH2xHPDelmTCaOowmfGB0shrYJfVuiNtHURrh40rgR2ChuYa2q81oKt1A_Pixa-XRXOtSmf7ARwB-gIniDL7OrKwXOVmMKmsWonLxodPyJrzWZ6Fvwgl5-AUTP5M8_qO-lRfk684b-QEWZWGHBbNO-cbhQTChT3Jp4vMTnYoamGh_8CoCYSz_txeEbgJIWCNrw2eVboRda1fAkNm-4yr7ph-Av9nQedjNx50KRrwEvxR_rn8epeNiasc1CL0UdM8iu_0EvHm5zldmnw6NqSQ_QCO4XiMxkwyK0XyL489VajDLH4IkWDBTqQIDsU7ykstIfkpycpjQuOvk7gvLZSOJCaWI9X8j750C5XeY7AjnDQsqweiPA1al6WopbfHPn2a105k9eUpqBUb4Y6kHAV_mxb5Fi39WSuMBfpNZt0oElaOh8D_Ey0nuSW0v57ux1i_bL9wH2fkhBogtaEG1nRbK0FK4RS3IL1S_-1KmVla0AD_ekkAK_lq2XyCvXFNyqGTuaH-Guf_5Rbi3D6SJHCCYbDJtIbwmLmEf0J4kefOahdYDfU91ux-XsbrDbtHM52dbBH7jOxm81W57hCIWQhcars5yo4108VENIdNhko2XaA1ghbyp9z7Qhsdz5ovIPgdUmSrqdwtg0zPb0kY2GOkUJjBG31Dx2NOU-MviaGglKWFZT2xxHDmKV4s53J3CroM62X1uDa_YisNos4NLW-Pe1j-fKf1kcUTbGjDOzdPzQ9SywstXecF2Ys2ANf2BsFYlfg0rEXQNwHRtAd6P0VIE4FcsE4iG15kViWqdThXQgo8ecFeGq9Fh7vMwDmYcLriliyJ7KK1kOJBiKGxSTK2hJInS1CQ_dyz2fGN3LNX4XKDDhMl9f90GQmEkRjJE2wtlGKdkn2qkjzThtmGh_LCxN8hDffhu4TeaBNo8oH-E9CsaGqlvK_syTfhiFZtwaDN6qFqoHqsuWOX8OpiABKglldS13ZXN0LTIw8A0"')
[hls @ 0x55ab8344c200] Skip ('#EXT-X-PROGRAM-DATE-TIME:2025-12-05T15:01:03.649Z')
[hls @ 0x55ab8344c200] Skip ('#EXT-X-PROGRAM-DATE-TIME:2025-12-05T15:01:05.649Z')
[hls @ 0x55ab8344c200] Skip ('#EXT-X-PROGRAM-DATE-TIME:2025-12-05T15:01:07.649Z')
[hls @ 0x55ab8344c200] Skip ('#EXT-X-PROGRAM-DATE-TIME:2025-12-05T15:01:09.649Z')
[hls @ 0x55ab8344c200] Skip ('#EXT-X-PROGRAM-DATE-TIME:2025-12-05T15:01:11.649Z')
[hls @ 0x55ab8344c200] Skip ('#EXT-X-PROGRAM-DATE-TIME:2025-12-05T15:01:13.649Z')
[hls @ 0x55ab8344c200] Skip ('#EXT-X-PROGRAM-DATE-TIME:2025-12-05T15:01:15.649Z')
[hls @ 0x55ab8344c200] Skip ('#EXT-X-PROGRAM-DATE-TIME:2025-12-05T15:01:17.649Z')
[hls @ 0x55ab8344c200] Skip ('#EXT-X-PROGRAM-DATE-TIME:2025-12-05T15:01:19.649Z')
[hls @ 0x55ab8344c200] Skip ('#EXT-X-PROGRAM-DATE-TIME:2025-12-05T15:01:21.649Z')
[hls @ 0x55ab8344c200] Skip ('#EXT-X-PROGRAM-DATE-TIME:2025-12-05T15:01:23.649Z')
[hls @ 0x55ab8344c200] Skip ('#EXT-X-PROGRAM-DATE-TIME:2025-12-05T15:01:25.649Z')
[hls @ 0x55ab8344c200] Skip ('#EXT-X-PROGRAM-DATE-TIME:2025-12-05T15:01:27.649Z')
[hls @ 0x55ab8344c200] Skip ('#EXT-X-PROGRAM-DATE-TIME:2025-12-05T15:01:29.649Z')
[hls @ 0x55ab8344c200] Skip ('#EXT-X-TWITCH-PREFETCH:https://7dfcb88758ec.j.cloudfront.hls.ttvnw.net/v1/segment/CuwCYA9gOOxSyHawe3Hcni15VHtSk49V5oxZvlYN859Szr2uFN5Mo-ZHhXuhZ3ruDnGHoHrE9XHt2ILlhoBt-bMCFn0RE7NZoRxIL0cBU99bNAnH7557mtDyK1XR7npZk5TVRFxUHwJ1f9xFfSyVahJfuPwSAp-3zm3U4kD7JOPyWqLT46Fdw6dgsO3eUuqv3nTSiDWu2mOCaOodbr4A_SpSij72cEnCahBgbzi2PG_rsjXgh18FVoL2kaKbqhY4LeuvjmJefhIcnYgTzlkZP6aHHUIGwotJXTPpCzLWT6v04WG7uwNhOmm74gV0bvt-1MbwhOwzbDMm-YLB-7nzCbmu6P7oJBGrfppvCsrGhQjZaZJ1ODlBS7kQdp2KqFfg18E7wAumirgkzvIj4mBtawgYqym85KiBbGTnosTiSXacbl8Sg3TfDLB-XYmVoNoXj1zu69haPRi-5PE4Y3cOiEjwIpnKrcqv83Lq2MRV9BoMj0PvUn826Jg8zuNYIAEqCWV1LXdlc3QtMjDwDQ.ts?dna=Cm0YFa7NxijvdIqXPt8Kf4clYhrZEZ_YYeTqV-NKOXyipnnRPuLEoVZmH5-TiR8d90BCfPfnZBsqJ4IbtsTtniaVRUhGitu47ocI_M0QQv75vtpPDCyy1G-0CsXFCsTGrAwxINNo4uKt-byuXYW7GgyD3q6gaOQnxElBQxMgASoJZXUtd2VzdC0yMPAN')
[hls @ 0x55ab8344c200] Skip ('#EXT-X-TWITCH-PREFETCH:https://7dfcb88758ec.j.cloudfront.hls.ttvnw.net/v1/segment/CuwCb9EXKLO6zx5DG7llP9dvXoX2jo7e-grb37QmsarDqpr6Mk15TtxEMVDsIheo2I_no8-WQ_yyQi7c_E5rpdyGEQ3xLfpOJ1OrIFJqzNezcmkRzpgOgQz7azUIbox1o4tHhLW7c1VCILJub5sT_ehsg0mnQ_tsdeb0ppXHeRbl268toGGooWh6GGZXJ93IlpjsfsaU1Bfqs47ec7XPXT9TrhiALDurrI-rp5Z4TZJapA4VtrKvqqsIv7FrsXO2rmrFD1LWEGixAq8O1Ma5sejRXAGf-Z8aca17q251gR580ITygmNReaE_1vfQaJm4tAZJK1ZbswnkANGa8InjbARNHrwpRzVZQSvVGS6fcLG1L6McIoyHZCSSRrToudul2aOq5_J4TGf54ZPzkniUWg3Ak29RhAq5NmB5GH0oZLLW5uuL3Krokzef7qUUwUgQ9dK5Yvrn4xhM4wihDDVS6tO21AuFSuwKwApXdpE8CRoMk6FPwGTHoGxyjufHIAEqCWV1LXdlc3QtMjDwDQ.ts?dna=Cm0YFa7NxijvdIqXPt8Kf4clYhrZEZ_YYeTqV-NKOXyipnnRPuLEoVZmH5-TiR8d90BCfPfnZBsqJ4IbtsTtniaVRUhGitu47ocI_M0QQv75vtpPDCyy1G-0CsXFCsTGrAwxINNo4uKt-byuXYW7GgyD3q6gaOQnxElBQxMgASoJZXUtd2VzdC0yMPAN')
[https @ 0x55ab83717680] Opening 'https://7dfcb88758ec.j.cloudfront.hls.ttvnw.net/v1/segment/CuwCz6JRwjErM3fAfzK5q2VoeqvcM6SdfJXsNetF0Lkg3gae7mxv47ad21XD0Ts6oNmIjZpc_bgN4Zs1qrCM_Pzwbn3q7NquFItrF4XNZ6Sdxg1NDIhcxXkATTdAJKemuY7xkXw1fAqQHkzs--LOS01qPtpPiKEOVSgIVmgU4jE5tEctRNJRtObdkcI8k4_DSHF1kIRKACLplprpObnq2Eu6wEkQ_eHRXK3KX61XhVsNwF6XoZshVW8SGPxKj37-RixWKChrM0ueJAIVBc8jrXf_vDkirG0yS356pSt2pcSn4_nELDH0n5MWWz4z9HcBmUUh1R-7YofINNdfy2vtyt18gw47aLNZHZSll9FoSGEPKQ1OYhdgEWRe_tcNAA7bIpoAfIQ6eWSmYUZhFBIjov0pczDWianlllcPRoEH_2rUmm8u56I0nKjGrhOMf99f3N15JthDjlE0vBS0-cEVtYJPnuFZrBWYgjs-0hYDhBoML4AUxz5G8n_BGDW7IAEqCWV1LXdlc3QtMjDwDQ.ts?dna=Cm0YFa7NxijvdIqXPt8Kf4clYhrZEZ_YYeTqV-NKOXyipnnRPuLEoVZmH5-TiR8d90BCfPfnZBsqJ4IbtsTtniaVRUhGitu47ocI_M0QQv75vtpPDCyy1G-0CsXFCsTGrAwxINNo4uKt-byuXYW7GgyD3q6gaOQnxElBQxMgASoJZXUtd2VzdC0yMPAN' for reading
[out#0/mp4 @ 0x55ab8355a4c0] video:10317KiB audio:478KiB subtitle:0KiB other streams:0KiB global headers:0KiB muxing overhead: 0.438687%
frame= 1438 fps= 70 q=-1.0 Lsize=   10843KiB time=00:00:23.93 bitrate=3711.4kbits/s speed=1.17x    
Exiting normally, received signal 15.
2025-12-05 15:01:32,850 - __main__ - INFO - Download stopped for browser browser_1764946858
2025-12-05 15:01:32,851 - werkzeug - INFO - 192.168.0.246 - - [05/Dec/2025 15:01:32] "POST /api/downloads/stop/browser_1764946858 HTTP/1.1" 200 -
2025-12-05 15:01:32,867 - werkzeug - INFO - 192.168.0.246 - - [05/Dec/2025 15:01:32] "GET /api/downloads/active HTTP/1.1" 200 -
2025-12-05 15:01:33,662 - werkzeug - INFO - 192.168.0.246 - - [05/Dec/2025 15:01:33] "GET /api/downloads/active HTTP/1.1" 200 -
2025-12-05 15:01:34,839 - werkzeug - INFO - 192.168.0.246 - - [05/Dec/2025 15:01:34] "GET /api/downloads/active HTTP/1.1" 200 -
2025-12-05 15:01:35,840 - werkzeug - INFO - 192.168.0.246 - - [05/Dec/2025 15:01:35] "GET /api/downloads/active HTTP/1.1" 200 -
2025-12-05 15:01:36,829 - werkzeug - INFO - 192.168.0.246 - - [05/Dec/2025 15:01:36] "GET /api/downloads/active HTTP/1.1" 200 -
2025-12-05 15:01:37,835 - werkzeug - INFO - 192.168.0.246 - - [05/Dec/2025 15:01:37] "GET /api/downloads/active HTTP/1.1" 200 -
